{
	"patcher" : 	{
		"fileversion" : 1,
		"appversion" : 		{
			"major" : 8,
			"minor" : 6,
			"revision" : 4,
			"architecture" : "x64",
			"modernui" : 1
		}
,
		"classnamespace" : "box",
		"rect" : [ 34.0, 76.0, 1301.0, 755.0 ],
		"bglocked" : 0,
		"openinpresentation" : 0,
		"default_fontsize" : 12.0,
		"default_fontface" : 0,
		"default_fontname" : "Arial",
		"gridonopen" : 1,
		"gridsize" : [ 15.0, 15.0 ],
		"gridsnaponopen" : 1,
		"objectsnaponopen" : 1,
		"statusbarvisible" : 2,
		"toolbarvisible" : 1,
		"lefttoolbarpinned" : 0,
		"toptoolbarpinned" : 0,
		"righttoolbarpinned" : 0,
		"bottomtoolbarpinned" : 0,
		"toolbars_unpinned_last_save" : 0,
		"tallnewobj" : 0,
		"boxanimatetime" : 200,
		"enablehscroll" : 1,
		"enablevscroll" : 1,
		"devicewidth" : 0.0,
		"description" : "",
		"digest" : "",
		"tags" : "",
		"style" : "",
		"subpatcher_template" : "",
		"assistshowspatchername" : 0,
		"boxes" : [ 			{
				"box" : 				{
					"id" : "obj-347",
					"maxclass" : "message",
					"numinlets" : 2,
					"numoutlets" : 1,
					"outlettype" : [ "" ],
					"patching_rect" : [ 1018.0, 706.0, 50.0, 22.0 ],
					"presentation" : 1,
					"presentation_rect" : [ 1067.0, 637.0, 50.0, 22.0 ]
				}

			}
, 			{
				"box" : 				{
					"id" : "obj-342",
					"maxclass" : "message",
					"numinlets" : 2,
					"numoutlets" : 1,
					"outlettype" : [ "" ],
					"patching_rect" : [ 962.0, 650.0, 55.0, 22.0 ],
					"text" : "incorrect"
				}

			}
, 			{
				"box" : 				{
					"id" : "obj-343",
					"maxclass" : "message",
					"numinlets" : 2,
					"numoutlets" : 1,
					"outlettype" : [ "" ],
					"patching_rect" : [ 1035.75, 650.0, 55.0, 22.0 ],
					"text" : "incorrect"
				}

			}
, 			{
				"box" : 				{
					"id" : "obj-344",
					"maxclass" : "message",
					"numinlets" : 2,
					"numoutlets" : 1,
					"outlettype" : [ "" ],
					"patching_rect" : [ 1115.5, 650.0, 55.0, 22.0 ],
					"text" : "incorrect"
				}

			}
, 			{
				"box" : 				{
					"id" : "obj-345",
					"maxclass" : "message",
					"numinlets" : 2,
					"numoutlets" : 1,
					"outlettype" : [ "" ],
					"patching_rect" : [ 914.0, 650.0, 45.0, 22.0 ],
					"text" : "correct"
				}

			}
, 			{
				"box" : 				{
					"id" : "obj-341",
					"maxclass" : "button",
					"numinlets" : 1,
					"numoutlets" : 1,
					"outlettype" : [ "bang" ],
					"parameter_enable" : 0,
					"patching_rect" : [ 1131.0, 619.0, 24.0, 24.0 ],
					"presentation" : 1,
					"presentation_rect" : [ 995.0, 684.0, 24.0, 24.0 ]
				}

			}
, 			{
				"box" : 				{
					"id" : "obj-339",
					"maxclass" : "button",
					"numinlets" : 1,
					"numoutlets" : 1,
					"outlettype" : [ "bang" ],
					"parameter_enable" : 0,
					"patching_rect" : [ 1051.25, 619.0, 24.0, 24.0 ],
					"presentation" : 1,
					"presentation_rect" : [ 977.0, 652.0, 24.0, 24.0 ]
				}

			}
, 			{
				"box" : 				{
					"id" : "obj-337",
					"maxclass" : "button",
					"numinlets" : 1,
					"numoutlets" : 1,
					"outlettype" : [ "bang" ],
					"parameter_enable" : 0,
					"patching_rect" : [ 977.5, 619.0, 24.0, 24.0 ],
					"presentation" : 1,
					"presentation_rect" : [ 972.0, 623.0, 24.0, 24.0 ]
				}

			}
, 			{
				"box" : 				{
					"id" : "obj-335",
					"maxclass" : "button",
					"numinlets" : 1,
					"numoutlets" : 1,
					"outlettype" : [ "bang" ],
					"parameter_enable" : 0,
					"patching_rect" : [ 924.5, 619.0, 24.0, 24.0 ],
					"presentation" : 1,
					"presentation_rect" : [ 972.0, 589.0, 24.0, 24.0 ]
				}

			}
, 			{
				"box" : 				{
					"id" : "obj-333",
					"maxclass" : "comment",
					"numinlets" : 1,
					"numoutlets" : 0,
					"patching_rect" : [ 1103.0, 591.0, 80.0, 20.0 ],
					"presentation" : 1,
					"presentation_rect" : [ 896.5, 686.0, 80.0, 20.0 ],
					"text" : "South Korea"
				}

			}
, 			{
				"box" : 				{
					"id" : "obj-331",
					"maxclass" : "comment",
					"numinlets" : 1,
					"numoutlets" : 0,
					"patching_rect" : [ 1034.0, 591.0, 58.5, 20.0 ],
					"presentation" : 1,
					"presentation_rect" : [ 907.25, 654.0, 58.5, 20.0 ],
					"text" : "Thailand"
				}

			}
, 			{
				"box" : 				{
					"id" : "obj-329",
					"maxclass" : "comment",
					"numinlets" : 1,
					"numoutlets" : 0,
					"patching_rect" : [ 915.0, 591.0, 43.0, 20.0 ],
					"presentation" : 1,
					"presentation_rect" : [ 915.0, 591.0, 43.0, 20.0 ],
					"text" : "Japan"
				}

			}
, 			{
				"box" : 				{
					"id" : "obj-327",
					"maxclass" : "comment",
					"numinlets" : 1,
					"numoutlets" : 0,
					"patching_rect" : [ 969.5, 591.0, 40.0, 20.0 ],
					"presentation" : 1,
					"presentation_rect" : [ 916.5, 623.0, 40.0, 20.0 ],
					"text" : "China"
				}

			}
, 			{
				"box" : 				{
					"id" : "obj-325",
					"linecount" : 2,
					"maxclass" : "comment",
					"numinlets" : 1,
					"numoutlets" : 0,
					"patching_rect" : [ 969.5, 549.0, 256.0, 34.0 ],
					"presentation" : 1,
					"presentation_linecount" : 2,
					"presentation_rect" : [ 927.0, 547.0, 256.0, 34.0 ],
					"text" : "12. Which country is known as the Land of the Rising Sun?"
				}

			}
, 			{
				"box" : 				{
					"id" : "obj-323",
					"maxclass" : "message",
					"numinlets" : 2,
					"numoutlets" : 1,
					"outlettype" : [ "" ],
					"patching_rect" : [ 1042.5, 515.0, 50.0, 22.0 ],
					"presentation" : 1,
					"presentation_rect" : [ 1067.0, 471.0, 50.0, 22.0 ]
				}

			}
, 			{
				"box" : 				{
					"id" : "obj-318",
					"maxclass" : "message",
					"numinlets" : 2,
					"numoutlets" : 1,
					"outlettype" : [ "" ],
					"patching_rect" : [ 949.5, 479.0, 55.0, 22.0 ],
					"text" : "incorrect"
				}

			}
, 			{
				"box" : 				{
					"id" : "obj-319",
					"maxclass" : "message",
					"numinlets" : 2,
					"numoutlets" : 1,
					"outlettype" : [ "" ],
					"patching_rect" : [ 1008.5, 479.0, 55.0, 22.0 ],
					"text" : "incorrect"
				}

			}
, 			{
				"box" : 				{
					"id" : "obj-320",
					"maxclass" : "message",
					"numinlets" : 2,
					"numoutlets" : 1,
					"outlettype" : [ "" ],
					"patching_rect" : [ 1116.5, 479.0, 55.0, 22.0 ],
					"text" : "incorrect"
				}

			}
, 			{
				"box" : 				{
					"id" : "obj-321",
					"maxclass" : "message",
					"numinlets" : 2,
					"numoutlets" : 1,
					"outlettype" : [ "" ],
					"patching_rect" : [ 1065.5, 479.0, 45.0, 22.0 ],
					"text" : "correct"
				}

			}
, 			{
				"box" : 				{
					"id" : "obj-317",
					"maxclass" : "button",
					"numinlets" : 1,
					"numoutlets" : 1,
					"outlettype" : [ "bang" ],
					"parameter_enable" : 0,
					"patching_rect" : [ 1131.5, 451.0, 24.0, 24.0 ],
					"presentation" : 1,
					"presentation_rect" : [ 972.0, 513.0, 24.0, 24.0 ]
				}

			}
, 			{
				"box" : 				{
					"id" : "obj-315",
					"maxclass" : "button",
					"numinlets" : 1,
					"numoutlets" : 1,
					"outlettype" : [ "bang" ],
					"parameter_enable" : 0,
					"patching_rect" : [ 1075.5, 451.0, 24.0, 24.0 ],
					"presentation" : 1,
					"presentation_rect" : [ 972.0, 482.0, 24.0, 24.0 ]
				}

			}
, 			{
				"box" : 				{
					"id" : "obj-313",
					"maxclass" : "button",
					"numinlets" : 1,
					"numoutlets" : 1,
					"outlettype" : [ "bang" ],
					"parameter_enable" : 0,
					"patching_rect" : [ 1021.5, 451.0, 24.0, 24.0 ],
					"presentation" : 1,
					"presentation_rect" : [ 972.0, 451.0, 24.0, 24.0 ]
				}

			}
, 			{
				"box" : 				{
					"id" : "obj-311",
					"maxclass" : "button",
					"numinlets" : 1,
					"numoutlets" : 1,
					"outlettype" : [ "bang" ],
					"parameter_enable" : 0,
					"patching_rect" : [ 969.5, 451.0, 24.0, 24.0 ],
					"presentation" : 1,
					"presentation_rect" : [ 972.0, 425.0, 24.0, 24.0 ]
				}

			}
, 			{
				"box" : 				{
					"id" : "obj-309",
					"maxclass" : "comment",
					"numinlets" : 1,
					"numoutlets" : 0,
					"patching_rect" : [ 1134.5, 427.0, 18.0, 20.0 ],
					"presentation" : 1,
					"presentation_rect" : [ 936.0, 515.0, 18.0, 20.0 ],
					"text" : "8"
				}

			}
, 			{
				"box" : 				{
					"id" : "obj-307",
					"maxclass" : "comment",
					"numinlets" : 1,
					"numoutlets" : 0,
					"patching_rect" : [ 1078.5, 427.0, 18.0, 20.0 ],
					"presentation" : 1,
					"presentation_rect" : [ 936.0, 484.0, 18.0, 20.0 ],
					"text" : "7"
				}

			}
, 			{
				"box" : 				{
					"id" : "obj-305",
					"maxclass" : "comment",
					"numinlets" : 1,
					"numoutlets" : 0,
					"patching_rect" : [ 1024.5, 427.0, 18.0, 20.0 ],
					"presentation" : 1,
					"presentation_rect" : [ 936.0, 453.0, 18.0, 20.0 ],
					"text" : "6"
				}

			}
, 			{
				"box" : 				{
					"id" : "obj-303",
					"maxclass" : "comment",
					"numinlets" : 1,
					"numoutlets" : 0,
					"patching_rect" : [ 971.5, 427.0, 20.0, 20.0 ],
					"presentation" : 1,
					"presentation_rect" : [ 935.0, 427.0, 20.0, 20.0 ],
					"text" : "5"
				}

			}
, 			{
				"box" : 				{
					"id" : "obj-301",
					"linecount" : 2,
					"maxclass" : "comment",
					"numinlets" : 1,
					"numoutlets" : 0,
					"patching_rect" : [ 968.5, 384.0, 196.5, 34.0 ],
					"presentation" : 1,
					"presentation_linecount" : 2,
					"presentation_rect" : [ 935.25, 386.0, 196.5, 34.0 ],
					"text" : "11. How many continents are there in the world?"
				}

			}
, 			{
				"box" : 				{
					"id" : "obj-299",
					"maxclass" : "message",
					"numinlets" : 2,
					"numoutlets" : 1,
					"outlettype" : [ "" ],
					"patching_rect" : [ 1036.0, 351.0, 50.0, 22.0 ],
					"presentation" : 1,
					"presentation_rect" : [ 1143.0, 289.0, 64.0, 22.0 ]
				}

			}
, 			{
				"box" : 				{
					"id" : "obj-294",
					"maxclass" : "message",
					"numinlets" : 2,
					"numoutlets" : 1,
					"outlettype" : [ "" ],
					"patching_rect" : [ 900.0, 289.0, 55.0, 22.0 ],
					"text" : "incorrect"
				}

			}
, 			{
				"box" : 				{
					"id" : "obj-295",
					"maxclass" : "message",
					"numinlets" : 2,
					"numoutlets" : 1,
					"outlettype" : [ "" ],
					"patching_rect" : [ 990.0, 289.0, 55.0, 22.0 ],
					"text" : "incorrect"
				}

			}
, 			{
				"box" : 				{
					"id" : "obj-296",
					"maxclass" : "message",
					"numinlets" : 2,
					"numoutlets" : 1,
					"outlettype" : [ "" ],
					"patching_rect" : [ 1071.0, 289.0, 55.0, 22.0 ],
					"text" : "incorrect"
				}

			}
, 			{
				"box" : 				{
					"id" : "obj-297",
					"maxclass" : "message",
					"numinlets" : 2,
					"numoutlets" : 1,
					"outlettype" : [ "" ],
					"patching_rect" : [ 1180.0, 289.0, 45.0, 22.0 ],
					"text" : "correct"
				}

			}
, 			{
				"box" : 				{
					"id" : "obj-293",
					"maxclass" : "button",
					"numinlets" : 1,
					"numoutlets" : 1,
					"outlettype" : [ "bang" ],
					"parameter_enable" : 0,
					"patching_rect" : [ 1190.0, 261.0, 24.0, 24.0 ],
					"presentation" : 1,
					"presentation_rect" : [ 1086.0, 348.0, 24.0, 24.0 ]
				}

			}
, 			{
				"box" : 				{
					"id" : "obj-291",
					"maxclass" : "button",
					"numinlets" : 1,
					"numoutlets" : 1,
					"outlettype" : [ "bang" ],
					"parameter_enable" : 0,
					"patching_rect" : [ 1086.0, 261.0, 24.0, 24.0 ],
					"presentation" : 1,
					"presentation_rect" : [ 1060.0, 314.0, 24.0, 24.0 ]
				}

			}
, 			{
				"box" : 				{
					"id" : "obj-289",
					"maxclass" : "button",
					"numinlets" : 1,
					"numoutlets" : 1,
					"outlettype" : [ "bang" ],
					"parameter_enable" : 0,
					"patching_rect" : [ 1006.0, 261.0, 24.0, 24.0 ],
					"presentation" : 1,
					"presentation_rect" : [ 1060.0, 278.0, 24.0, 24.0 ]
				}

			}
, 			{
				"box" : 				{
					"id" : "obj-287",
					"maxclass" : "button",
					"numinlets" : 1,
					"numoutlets" : 1,
					"outlettype" : [ "bang" ],
					"parameter_enable" : 0,
					"patching_rect" : [ 915.0, 261.0, 24.0, 24.0 ],
					"presentation" : 1,
					"presentation_rect" : [ 1060.0, 238.0, 24.0, 24.0 ]
				}

			}
, 			{
				"box" : 				{
					"id" : "obj-285",
					"maxclass" : "comment",
					"numinlets" : 1,
					"numoutlets" : 0,
					"patching_rect" : [ 1063.0, 239.0, 70.0, 20.0 ],
					"presentation" : 1,
					"presentation_rect" : [ 941.0, 316.0, 70.0, 20.0 ],
					"text" : "Mark Twain"
				}

			}
, 			{
				"box" : 				{
					"id" : "obj-283",
					"maxclass" : "comment",
					"numinlets" : 1,
					"numoutlets" : 0,
					"patching_rect" : [ 980.0, 239.0, 75.0, 20.0 ],
					"presentation" : 1,
					"presentation_rect" : [ 941.0, 280.0, 75.0, 20.0 ],
					"text" : "Jane Austen"
				}

			}
, 			{
				"box" : 				{
					"id" : "obj-281",
					"maxclass" : "comment",
					"numinlets" : 1,
					"numoutlets" : 0,
					"patching_rect" : [ 1141.0, 239.0, 122.0, 20.0 ],
					"presentation" : 1,
					"presentation_rect" : [ 941.0, 350.0, 122.0, 20.0 ],
					"text" : "William Shakespeare"
				}

			}
, 			{
				"box" : 				{
					"id" : "obj-279",
					"maxclass" : "comment",
					"numinlets" : 1,
					"numoutlets" : 0,
					"patching_rect" : [ 879.0, 239.0, 96.0, 20.0 ],
					"presentation" : 1,
					"presentation_rect" : [ 941.0, 240.0, 96.0, 20.0 ],
					"text" : "Charles Dickens"
				}

			}
, 			{
				"box" : 				{
					"id" : "obj-277",
					"linecount" : 2,
					"maxclass" : "comment",
					"numinlets" : 1,
					"numoutlets" : 0,
					"patching_rect" : [ 986.0, 192.0, 176.0, 34.0 ],
					"presentation" : 1,
					"presentation_linecount" : 2,
					"presentation_rect" : [ 941.0, 193.0, 176.0, 34.0 ],
					"text" : "10. Who wrote Romeo and Juliet?"
				}

			}
, 			{
				"box" : 				{
					"id" : "obj-275",
					"maxclass" : "message",
					"numinlets" : 2,
					"numoutlets" : 1,
					"outlettype" : [ "" ],
					"patching_rect" : [ 1042.5, 160.0, 82.0, 22.0 ],
					"presentation" : 1,
					"presentation_rect" : [ 1069.0, 104.0, 82.0, 22.0 ]
				}

			}
, 			{
				"box" : 				{
					"id" : "obj-270",
					"maxclass" : "message",
					"numinlets" : 2,
					"numoutlets" : 1,
					"outlettype" : [ "" ],
					"patching_rect" : [ 1145.0, 117.0, 55.0, 22.0 ],
					"text" : "incorrect"
				}

			}
, 			{
				"box" : 				{
					"id" : "obj-271",
					"maxclass" : "message",
					"numinlets" : 2,
					"numoutlets" : 1,
					"outlettype" : [ "" ],
					"patching_rect" : [ 1089.0, 117.0, 55.0, 22.0 ],
					"text" : "incorrect"
				}

			}
, 			{
				"box" : 				{
					"id" : "obj-272",
					"maxclass" : "message",
					"numinlets" : 2,
					"numoutlets" : 1,
					"outlettype" : [ "" ],
					"patching_rect" : [ 984.0, 117.0, 55.0, 22.0 ],
					"text" : "incorrect"
				}

			}
, 			{
				"box" : 				{
					"id" : "obj-273",
					"maxclass" : "message",
					"numinlets" : 2,
					"numoutlets" : 1,
					"outlettype" : [ "" ],
					"patching_rect" : [ 1042.0, 117.0, 45.0, 22.0 ],
					"text" : "correct"
				}

			}
, 			{
				"box" : 				{
					"id" : "obj-269",
					"maxclass" : "button",
					"numinlets" : 1,
					"numoutlets" : 1,
					"outlettype" : [ "bang" ],
					"parameter_enable" : 0,
					"patching_rect" : [ 1145.0, 83.0, 24.0, 24.0 ],
					"presentation" : 1,
					"presentation_rect" : [ 996.0, 145.0, 24.0, 24.0 ]
				}

			}
, 			{
				"box" : 				{
					"id" : "obj-267",
					"maxclass" : "button",
					"numinlets" : 1,
					"numoutlets" : 1,
					"outlettype" : [ "bang" ],
					"parameter_enable" : 0,
					"patching_rect" : [ 1097.0, 83.0, 24.0, 24.0 ],
					"presentation" : 1,
					"presentation_rect" : [ 996.0, 116.0, 24.0, 24.0 ]
				}

			}
, 			{
				"box" : 				{
					"id" : "obj-265",
					"maxclass" : "button",
					"numinlets" : 1,
					"numoutlets" : 1,
					"outlettype" : [ "bang" ],
					"parameter_enable" : 0,
					"patching_rect" : [ 1052.0, 83.0, 24.0, 24.0 ],
					"presentation" : 1,
					"presentation_rect" : [ 996.0, 86.0, 24.0, 24.0 ]
				}

			}
, 			{
				"box" : 				{
					"id" : "obj-263",
					"maxclass" : "button",
					"numinlets" : 1,
					"numoutlets" : 1,
					"outlettype" : [ "bang" ],
					"parameter_enable" : 0,
					"patching_rect" : [ 999.0, 83.0, 24.0, 24.0 ],
					"presentation" : 1,
					"presentation_rect" : [ 996.0, 61.0, 24.0, 24.0 ]
				}

			}
, 			{
				"box" : 				{
					"id" : "obj-261",
					"maxclass" : "comment",
					"numinlets" : 1,
					"numoutlets" : 0,
					"patching_rect" : [ 1136.0, 56.0, 41.0, 20.0 ],
					"presentation" : 1,
					"presentation_rect" : [ 941.0, 147.0, 38.0, 20.0 ],
					"text" : "1920"
				}

			}
, 			{
				"box" : 				{
					"id" : "obj-259",
					"maxclass" : "comment",
					"numinlets" : 1,
					"numoutlets" : 0,
					"patching_rect" : [ 1091.0, 56.0, 35.0, 20.0 ],
					"presentation" : 1,
					"presentation_rect" : [ 944.0, 116.0, 35.0, 20.0 ],
					"text" : "1910"
				}

			}
, 			{
				"box" : 				{
					"id" : "obj-257",
					"maxclass" : "comment",
					"numinlets" : 1,
					"numoutlets" : 0,
					"patching_rect" : [ 1045.0, 56.0, 38.0, 20.0 ],
					"presentation" : 1,
					"presentation_rect" : [ 942.0, 88.0, 38.0, 20.0 ],
					"text" : "1912"
				}

			}
, 			{
				"box" : 				{
					"id" : "obj-255",
					"maxclass" : "comment",
					"numinlets" : 1,
					"numoutlets" : 0,
					"patching_rect" : [ 992.0, 56.0, 38.0, 20.0 ],
					"presentation" : 1,
					"presentation_rect" : [ 942.0, 63.0, 38.0, 20.0 ],
					"text" : "1999"
				}

			}
, 			{
				"box" : 				{
					"id" : "obj-253",
					"linecount" : 2,
					"maxclass" : "comment",
					"numinlets" : 1,
					"numoutlets" : 0,
					"patching_rect" : [ 996.0, 14.0, 175.0, 34.0 ],
					"presentation" : 1,
					"presentation_linecount" : 2,
					"presentation_rect" : [ 946.0, 13.0, 175.0, 34.0 ],
					"text" : "9. Which year did the Titanic sink?"
				}

			}
, 			{
				"box" : 				{
					"id" : "obj-251",
					"maxclass" : "message",
					"numinlets" : 2,
					"numoutlets" : 1,
					"outlettype" : [ "" ],
					"patching_rect" : [ 583.0, 726.0, 50.0, 22.0 ],
					"presentation" : 1,
					"presentation_rect" : [ 607.0, 637.0, 64.0, 22.0 ]
				}

			}
, 			{
				"box" : 				{
					"id" : "obj-246",
					"maxclass" : "message",
					"numinlets" : 2,
					"numoutlets" : 1,
					"outlettype" : [ "" ],
					"patching_rect" : [ 660.25, 685.0, 55.0, 22.0 ],
					"text" : "incorrect"
				}

			}
, 			{
				"box" : 				{
					"id" : "obj-247",
					"maxclass" : "message",
					"numinlets" : 2,
					"numoutlets" : 1,
					"outlettype" : [ "" ],
					"patching_rect" : [ 606.0, 685.0, 55.0, 22.0 ],
					"text" : "incorrect"
				}

			}
, 			{
				"box" : 				{
					"id" : "obj-248",
					"maxclass" : "message",
					"numinlets" : 2,
					"numoutlets" : 1,
					"outlettype" : [ "" ],
					"patching_rect" : [ 486.0, 685.0, 55.0, 22.0 ],
					"text" : "incorrect"
				}

			}
, 			{
				"box" : 				{
					"id" : "obj-249",
					"maxclass" : "message",
					"numinlets" : 2,
					"numoutlets" : 1,
					"outlettype" : [ "" ],
					"patching_rect" : [ 554.5, 685.0, 45.0, 22.0 ],
					"text" : "correct"
				}

			}
, 			{
				"box" : 				{
					"id" : "obj-245",
					"maxclass" : "button",
					"numinlets" : 1,
					"numoutlets" : 1,
					"outlettype" : [ "bang" ],
					"parameter_enable" : 0,
					"patching_rect" : [ 675.75, 659.0, 24.0, 24.0 ],
					"presentation" : 1,
					"presentation_rect" : [ 508.0, 684.0, 24.0, 24.0 ]
				}

			}
, 			{
				"box" : 				{
					"id" : "obj-243",
					"maxclass" : "button",
					"numinlets" : 1,
					"numoutlets" : 1,
					"outlettype" : [ "bang" ],
					"parameter_enable" : 0,
					"patching_rect" : [ 621.5, 659.0, 24.0, 24.0 ],
					"presentation" : 1,
					"presentation_rect" : [ 508.0, 652.0, 24.0, 24.0 ]
				}

			}
, 			{
				"box" : 				{
					"id" : "obj-241",
					"maxclass" : "button",
					"numinlets" : 1,
					"numoutlets" : 1,
					"outlettype" : [ "bang" ],
					"parameter_enable" : 0,
					"patching_rect" : [ 565.0, 659.0, 24.0, 24.0 ],
					"presentation" : 1,
					"presentation_rect" : [ 508.0, 623.0, 24.0, 24.0 ]
				}

			}
, 			{
				"box" : 				{
					"id" : "obj-239",
					"maxclass" : "button",
					"numinlets" : 1,
					"numoutlets" : 1,
					"outlettype" : [ "bang" ],
					"parameter_enable" : 0,
					"patching_rect" : [ 501.5, 659.0, 24.0, 24.0 ],
					"presentation" : 1,
					"presentation_rect" : [ 508.0, 593.0, 24.0, 24.0 ]
				}

			}
, 			{
				"box" : 				{
					"id" : "obj-237",
					"maxclass" : "comment",
					"numinlets" : 1,
					"numoutlets" : 0,
					"patching_rect" : [ 668.0, 637.0, 39.5, 20.0 ],
					"presentation" : 1,
					"presentation_rect" : [ 435.75, 686.0, 39.5, 20.0 ],
					"text" : "Sand"
				}

			}
, 			{
				"box" : 				{
					"id" : "obj-235",
					"maxclass" : "comment",
					"numinlets" : 1,
					"numoutlets" : 0,
					"patching_rect" : [ 613.0, 637.0, 41.0, 20.0 ],
					"presentation" : 1,
					"presentation_rect" : [ 435.0, 654.0, 41.0, 20.0 ],
					"text" : "Metal"
				}

			}
, 			{
				"box" : 				{
					"id" : "obj-233",
					"maxclass" : "comment",
					"numinlets" : 1,
					"numoutlets" : 0,
					"patching_rect" : [ 554.0, 637.0, 46.0, 20.0 ],
					"presentation" : 1,
					"presentation_rect" : [ 432.5, 623.0, 46.0, 20.0 ],
					"text" : "Water"
				}

			}
, 			{
				"box" : 				{
					"id" : "obj-231",
					"maxclass" : "comment",
					"numinlets" : 1,
					"numoutlets" : 0,
					"patching_rect" : [ 482.5, 637.0, 62.0, 20.0 ],
					"presentation" : 1,
					"presentation_rect" : [ 432.5, 595.0, 62.0, 20.0 ],
					"text" : "Electricity"
				}

			}
, 			{
				"box" : 				{
					"id" : "obj-229",
					"linecount" : 2,
					"maxclass" : "comment",
					"numinlets" : 1,
					"numoutlets" : 0,
					"patching_rect" : [ 543.5, 591.0, 200.0, 34.0 ],
					"presentation" : 1,
					"presentation_linecount" : 2,
					"presentation_rect" : [ 429.0, 547.0, 200.0, 34.0 ],
					"text" : "8. When you create Hydrogen and Oxygen, what does it create?"
				}

			}
, 			{
				"box" : 				{
					"id" : "obj-227",
					"maxclass" : "message",
					"numinlets" : 2,
					"numoutlets" : 1,
					"outlettype" : [ "" ],
					"patching_rect" : [ 575.0, 549.0, 50.0, 22.0 ],
					"presentation" : 1,
					"presentation_rect" : [ 620.0, 456.0, 63.0, 22.0 ]
				}

			}
, 			{
				"box" : 				{
					"id" : "obj-222",
					"maxclass" : "message",
					"numinlets" : 2,
					"numoutlets" : 1,
					"outlettype" : [ "" ],
					"patching_rect" : [ 638.0, 498.0, 55.0, 22.0 ],
					"text" : "incorrect"
				}

			}
, 			{
				"box" : 				{
					"id" : "obj-223",
					"maxclass" : "message",
					"numinlets" : 2,
					"numoutlets" : 1,
					"outlettype" : [ "" ],
					"patching_rect" : [ 530.0, 498.0, 55.0, 22.0 ],
					"text" : "incorrect"
				}

			}
, 			{
				"box" : 				{
					"id" : "obj-224",
					"maxclass" : "message",
					"numinlets" : 2,
					"numoutlets" : 1,
					"outlettype" : [ "" ],
					"patching_rect" : [ 471.5, 498.0, 55.0, 22.0 ],
					"text" : "incorrect"
				}

			}
, 			{
				"box" : 				{
					"id" : "obj-225",
					"maxclass" : "message",
					"numinlets" : 2,
					"numoutlets" : 1,
					"outlettype" : [ "" ],
					"patching_rect" : [ 589.0, 498.0, 45.0, 22.0 ],
					"text" : "correct"
				}

			}
, 			{
				"box" : 				{
					"id" : "obj-221",
					"maxclass" : "button",
					"numinlets" : 1,
					"numoutlets" : 1,
					"outlettype" : [ "bang" ],
					"parameter_enable" : 0,
					"patching_rect" : [ 653.5, 462.0, 24.0, 24.0 ],
					"presentation" : 1,
					"presentation_rect" : [ 495.0, 501.0, 24.0, 24.0 ]
				}

			}
, 			{
				"box" : 				{
					"id" : "obj-219",
					"maxclass" : "button",
					"numinlets" : 1,
					"numoutlets" : 1,
					"outlettype" : [ "bang" ],
					"parameter_enable" : 0,
					"patching_rect" : [ 595.75, 462.0, 24.0, 24.0 ],
					"presentation" : 1,
					"presentation_rect" : [ 495.0, 470.0, 24.0, 24.0 ]
				}

			}
, 			{
				"box" : 				{
					"id" : "obj-217",
					"maxclass" : "button",
					"numinlets" : 1,
					"numoutlets" : 1,
					"outlettype" : [ "bang" ],
					"parameter_enable" : 0,
					"patching_rect" : [ 539.5, 462.0, 24.0, 24.0 ],
					"presentation" : 1,
					"presentation_rect" : [ 495.0, 439.0, 24.0, 24.0 ]
				}

			}
, 			{
				"box" : 				{
					"id" : "obj-215",
					"maxclass" : "button",
					"numinlets" : 1,
					"numoutlets" : 1,
					"outlettype" : [ "bang" ],
					"parameter_enable" : 0,
					"patching_rect" : [ 487.0, 462.0, 24.0, 24.0 ],
					"presentation" : 1,
					"presentation_rect" : [ 495.0, 411.0, 24.0, 24.0 ]
				}

			}
, 			{
				"box" : 				{
					"id" : "obj-213",
					"maxclass" : "comment",
					"numinlets" : 1,
					"numoutlets" : 0,
					"patching_rect" : [ 643.0, 441.0, 45.0, 20.0 ],
					"presentation" : 1,
					"presentation_rect" : [ 436.5, 503.0, 45.0, 20.0 ],
					"text" : "Saturn"
				}

			}
, 			{
				"box" : 				{
					"id" : "obj-211",
					"maxclass" : "comment",
					"numinlets" : 1,
					"numoutlets" : 0,
					"patching_rect" : [ 585.5, 441.0, 44.5, 20.0 ],
					"presentation" : 1,
					"presentation_rect" : [ 436.75, 470.0, 44.5, 20.0 ],
					"text" : "Jupiter"
				}

			}
, 			{
				"box" : 				{
					"id" : "obj-209",
					"maxclass" : "comment",
					"numinlets" : 1,
					"numoutlets" : 0,
					"patching_rect" : [ 530.0, 441.0, 43.0, 20.0 ],
					"presentation" : 1,
					"presentation_rect" : [ 437.5, 441.0, 43.0, 20.0 ],
					"text" : "Venus"
				}

			}
, 			{
				"box" : 				{
					"id" : "obj-207",
					"maxclass" : "comment",
					"numinlets" : 1,
					"numoutlets" : 0,
					"patching_rect" : [ 480.0, 441.0, 38.0, 20.0 ],
					"presentation" : 1,
					"presentation_rect" : [ 440.0, 413.0, 38.0, 20.0 ],
					"text" : "Earth"
				}

			}
, 			{
				"box" : 				{
					"id" : "obj-205",
					"linecount" : 2,
					"maxclass" : "comment",
					"numinlets" : 1,
					"numoutlets" : 0,
					"patching_rect" : [ 510.5, 396.0, 233.0, 34.0 ],
					"presentation" : 1,
					"presentation_linecount" : 2,
					"presentation_rect" : [ 427.5, 362.0, 233.0, 34.0 ],
					"text" : "7. Which planet is the biggest in our solar system?"
				}

			}
, 			{
				"box" : 				{
					"id" : "obj-203",
					"maxclass" : "message",
					"numinlets" : 2,
					"numoutlets" : 1,
					"outlettype" : [ "" ],
					"patching_rect" : [ 333.0, 353.0, 107.0, 22.0 ],
					"text" : "textcolor 1. 1. 1. 1."
				}

			}
, 			{
				"box" : 				{
					"id" : "obj-201",
					"maxclass" : "message",
					"numinlets" : 2,
					"numoutlets" : 1,
					"outlettype" : [ "" ],
					"patching_rect" : [ 333.0, 318.0, 107.0, 22.0 ],
					"text" : "textcolor 1. 0. 0. 1."
				}

			}
, 			{
				"box" : 				{
					"id" : "obj-198",
					"maxclass" : "message",
					"numinlets" : 2,
					"numoutlets" : 1,
					"outlettype" : [ "" ],
					"patching_rect" : [ 333.0, 282.0, 107.0, 22.0 ],
					"text" : "textcolor 0. 0. 1. 1."
				}

			}
, 			{
				"box" : 				{
					"id" : "obj-196",
					"maxclass" : "message",
					"numinlets" : 2,
					"numoutlets" : 1,
					"outlettype" : [ "" ],
					"patching_rect" : [ 347.0, 241.0, 107.0, 22.0 ],
					"text" : "textcolor 0. 1. 0. 1.",
					"textcolor" : [ 0.968627450980392, 0.968627450980392, 0.968627450980392, 1.0 ]
				}

			}
, 			{
				"box" : 				{
					"id" : "obj-194",
					"maxclass" : "message",
					"numinlets" : 2,
					"numoutlets" : 1,
					"outlettype" : [ "" ],
					"patching_rect" : [ 580.0, 342.0, 50.0, 22.0 ],
					"presentation" : 1,
					"presentation_rect" : [ 601.0, 291.0, 62.0, 22.0 ],
					"textcolor" : [ 0.0, 1.0, 0.0, 1.0 ]
				}

			}
, 			{
				"box" : 				{
					"id" : "obj-187",
					"maxclass" : "message",
					"numinlets" : 2,
					"numoutlets" : 1,
					"outlettype" : [ "" ],
					"patching_rect" : [ 652.5, 293.0, 55.0, 22.0 ],
					"text" : "incorrect"
				}

			}
, 			{
				"box" : 				{
					"id" : "obj-188",
					"maxclass" : "message",
					"numinlets" : 2,
					"numoutlets" : 1,
					"outlettype" : [ "" ],
					"patching_rect" : [ 570.5, 293.0, 55.0, 22.0 ],
					"text" : "incorrect"
				}

			}
, 			{
				"box" : 				{
					"id" : "obj-189",
					"maxclass" : "message",
					"numinlets" : 2,
					"numoutlets" : 1,
					"outlettype" : [ "" ],
					"patching_rect" : [ 517.5, 293.0, 55.0, 22.0 ],
					"text" : "incorrect"
				}

			}
, 			{
				"box" : 				{
					"id" : "obj-190",
					"maxclass" : "message",
					"numinlets" : 2,
					"numoutlets" : 1,
					"outlettype" : [ "" ],
					"patching_rect" : [ 472.5, 293.0, 45.0, 22.0 ],
					"text" : "correct"
				}

			}
, 			{
				"box" : 				{
					"id" : "obj-186",
					"maxclass" : "button",
					"numinlets" : 1,
					"numoutlets" : 1,
					"outlettype" : [ "bang" ],
					"parameter_enable" : 0,
					"patching_rect" : [ 668.0, 263.0, 24.0, 24.0 ],
					"presentation" : 1,
					"presentation_rect" : [ 495.0, 323.0, 24.0, 24.0 ]
				}

			}
, 			{
				"box" : 				{
					"id" : "obj-184",
					"maxclass" : "button",
					"numinlets" : 1,
					"numoutlets" : 1,
					"outlettype" : [ "bang" ],
					"parameter_enable" : 0,
					"patching_rect" : [ 586.0, 263.0, 24.0, 24.0 ],
					"presentation" : 1,
					"presentation_rect" : [ 495.0, 292.0, 24.0, 24.0 ]
				}

			}
, 			{
				"box" : 				{
					"id" : "obj-182",
					"maxclass" : "button",
					"numinlets" : 1,
					"numoutlets" : 1,
					"outlettype" : [ "bang" ],
					"parameter_enable" : 0,
					"patching_rect" : [ 533.0, 263.0, 24.0, 24.0 ],
					"presentation" : 1,
					"presentation_rect" : [ 495.0, 261.0, 24.0, 24.0 ]
				}

			}
, 			{
				"box" : 				{
					"id" : "obj-180",
					"maxclass" : "button",
					"numinlets" : 1,
					"numoutlets" : 1,
					"outlettype" : [ "bang" ],
					"parameter_enable" : 0,
					"patching_rect" : [ 483.0, 263.0, 24.0, 24.0 ],
					"presentation" : 1,
					"presentation_rect" : [ 495.0, 231.0, 24.0, 24.0 ]
				}

			}
, 			{
				"box" : 				{
					"id" : "obj-178",
					"maxclass" : "comment",
					"numinlets" : 1,
					"numoutlets" : 0,
					"patching_rect" : [ 633.0, 241.0, 93.0, 20.0 ],
					"presentation" : 1,
					"presentation_rect" : [ 394.0, 325.0, 93.0, 20.0 ],
					"text" : "All of the above"
				}

			}
, 			{
				"box" : 				{
					"id" : "obj-176",
					"maxclass" : "comment",
					"numinlets" : 1,
					"numoutlets" : 0,
					"patching_rect" : [ 575.0, 241.0, 47.0, 20.0 ],
					"presentation" : 1,
					"presentation_rect" : [ 440.0, 292.0, 47.0, 20.0 ],
					"text" : "Red"
				}

			}
, 			{
				"box" : 				{
					"id" : "obj-172",
					"maxclass" : "comment",
					"numinlets" : 1,
					"numoutlets" : 0,
					"patching_rect" : [ 528.0, 241.0, 33.0, 20.0 ],
					"presentation" : 1,
					"presentation_rect" : [ 447.0, 263.0, 33.0, 20.0 ],
					"text" : "Blue"
				}

			}
, 			{
				"box" : 				{
					"id" : "obj-169",
					"maxclass" : "comment",
					"numinlets" : 1,
					"numoutlets" : 0,
					"patching_rect" : [ 473.0, 241.0, 43.0, 20.0 ],
					"presentation" : 1,
					"presentation_rect" : [ 442.0, 233.0, 43.0, 20.0 ],
					"text" : "Green"
				}

			}
, 			{
				"box" : 				{
					"id" : "obj-167",
					"maxclass" : "comment",
					"numinlets" : 1,
					"numoutlets" : 0,
					"patching_rect" : [ 534.0, 215.0, 169.0, 20.0 ],
					"presentation" : 1,
					"presentation_rect" : [ 427.5, 200.0, 169.0, 20.0 ],
					"text" : "6. What color is the grass?"
				}

			}
, 			{
				"box" : 				{
					"id" : "obj-165",
					"maxclass" : "message",
					"numinlets" : 2,
					"numoutlets" : 1,
					"outlettype" : [ "" ],
					"patching_rect" : [ 584.0, 170.0, 50.0, 22.0 ],
					"presentation" : 1,
					"presentation_rect" : [ 601.0, 110.0, 62.0, 22.0 ]
				}

			}
, 			{
				"box" : 				{
					"id" : "obj-160",
					"maxclass" : "message",
					"numinlets" : 2,
					"numoutlets" : 1,
					"outlettype" : [ "" ],
					"patching_rect" : [ 633.0, 120.0, 55.0, 22.0 ],
					"text" : "incorrect"
				}

			}
, 			{
				"box" : 				{
					"id" : "obj-161",
					"maxclass" : "message",
					"numinlets" : 2,
					"numoutlets" : 1,
					"outlettype" : [ "" ],
					"patching_rect" : [ 549.5, 120.0, 55.0, 22.0 ],
					"text" : "incorrect"
				}

			}
, 			{
				"box" : 				{
					"id" : "obj-162",
					"maxclass" : "message",
					"numinlets" : 2,
					"numoutlets" : 1,
					"outlettype" : [ "" ],
					"patching_rect" : [ 445.0, 120.0, 55.0, 22.0 ],
					"text" : "incorrect"
				}

			}
, 			{
				"box" : 				{
					"id" : "obj-163",
					"maxclass" : "message",
					"numinlets" : 2,
					"numoutlets" : 1,
					"outlettype" : [ "" ],
					"patching_rect" : [ 729.0, 120.0, 45.0, 22.0 ],
					"text" : "correct"
				}

			}
, 			{
				"box" : 				{
					"id" : "obj-159",
					"maxclass" : "button",
					"numinlets" : 1,
					"numoutlets" : 1,
					"outlettype" : [ "bang" ],
					"parameter_enable" : 0,
					"patching_rect" : [ 648.0, 90.0, 24.0, 24.0 ],
					"presentation" : 1,
					"presentation_rect" : [ 537.0, 127.0, 24.0, 24.0 ]
				}

			}
, 			{
				"box" : 				{
					"id" : "obj-157",
					"maxclass" : "button",
					"numinlets" : 1,
					"numoutlets" : 1,
					"outlettype" : [ "bang" ],
					"parameter_enable" : 0,
					"patching_rect" : [ 565.5, 90.0, 24.0, 24.0 ],
					"presentation" : 1,
					"presentation_rect" : [ 537.0, 96.0, 24.0, 24.0 ]
				}

			}
, 			{
				"box" : 				{
					"id" : "obj-155",
					"maxclass" : "button",
					"numinlets" : 1,
					"numoutlets" : 1,
					"outlettype" : [ "bang" ],
					"parameter_enable" : 0,
					"patching_rect" : [ 460.0, 90.0, 24.0, 24.0 ],
					"presentation" : 1,
					"presentation_rect" : [ 537.0, 66.0, 24.0, 24.0 ]
				}

			}
, 			{
				"box" : 				{
					"id" : "obj-153",
					"maxclass" : "button",
					"numinlets" : 1,
					"numoutlets" : 1,
					"outlettype" : [ "bang" ],
					"parameter_enable" : 0,
					"patching_rect" : [ 739.0, 90.0, 24.0, 24.0 ],
					"presentation" : 1,
					"presentation_rect" : [ 537.0, 158.0, 24.0, 24.0 ]
				}

			}
, 			{
				"box" : 				{
					"id" : "obj-151",
					"maxclass" : "comment",
					"numinlets" : 1,
					"numoutlets" : 0,
					"patching_rect" : [ 631.0, 68.0, 58.0, 20.0 ],
					"presentation" : 1,
					"presentation_rect" : [ 420.0, 129.0, 58.0, 20.0 ],
					"text" : "Hokusai"
				}

			}
, 			{
				"box" : 				{
					"id" : "obj-149",
					"maxclass" : "comment",
					"numinlets" : 1,
					"numoutlets" : 0,
					"patching_rect" : [ 533.5, 68.0, 87.0, 20.0 ],
					"presentation" : 1,
					"presentation_rect" : [ 420.0, 98.0, 87.0, 20.0 ],
					"text" : "Claude Monet"
				}

			}
, 			{
				"box" : 				{
					"id" : "obj-147",
					"maxclass" : "comment",
					"numinlets" : 1,
					"numoutlets" : 0,
					"patching_rect" : [ 420.0, 68.0, 104.0, 20.0 ],
					"presentation" : 1,
					"presentation_rect" : [ 420.0, 68.0, 104.0, 20.0 ],
					"text" : "Vincent van Gogh"
				}

			}
, 			{
				"box" : 				{
					"id" : "obj-145",
					"maxclass" : "comment",
					"numinlets" : 1,
					"numoutlets" : 0,
					"patching_rect" : [ 695.0, 68.0, 112.0, 20.0 ],
					"presentation" : 1,
					"presentation_rect" : [ 420.0, 160.0, 112.0, 20.0 ],
					"text" : "Leonardo Da Vinci"
				}

			}
, 			{
				"box" : 				{
					"id" : "obj-143",
					"maxclass" : "comment",
					"numinlets" : 1,
					"numoutlets" : 0,
					"patching_rect" : [ 532.0, 43.0, 184.0, 20.0 ],
					"presentation" : 1,
					"presentation_rect" : [ 420.0, 34.0, 184.0, 20.0 ],
					"text" : "5. Who painted Mona Lisa?"
				}

			}
, 			{
				"box" : 				{
					"id" : "obj-141",
					"maxclass" : "message",
					"numinlets" : 2,
					"numoutlets" : 1,
					"outlettype" : [ "" ],
					"patching_rect" : [ 122.5, 717.0, 55.5, 22.0 ],
					"presentation" : 1,
					"presentation_rect" : [ 149.75, 602.0, 55.5, 22.0 ]
				}

			}
, 			{
				"box" : 				{
					"id" : "obj-136",
					"maxclass" : "message",
					"numinlets" : 2,
					"numoutlets" : 1,
					"outlettype" : [ "" ],
					"patching_rect" : [ 170.0, 667.0, 55.0, 22.0 ],
					"text" : "incorrect"
				}

			}
, 			{
				"box" : 				{
					"id" : "obj-137",
					"maxclass" : "message",
					"numinlets" : 2,
					"numoutlets" : 1,
					"outlettype" : [ "" ],
					"patching_rect" : [ 94.5, 667.0, 55.0, 22.0 ],
					"text" : "incorrect"
				}

			}
, 			{
				"box" : 				{
					"id" : "obj-138",
					"maxclass" : "message",
					"numinlets" : 2,
					"numoutlets" : 1,
					"outlettype" : [ "" ],
					"patching_rect" : [ 13.5, 667.0, 55.0, 22.0 ],
					"text" : "incorrect"
				}

			}
, 			{
				"box" : 				{
					"id" : "obj-139",
					"maxclass" : "message",
					"numinlets" : 2,
					"numoutlets" : 1,
					"outlettype" : [ "" ],
					"patching_rect" : [ 269.5, 667.0, 45.0, 22.0 ],
					"text" : "correct"
				}

			}
, 			{
				"box" : 				{
					"id" : "obj-132",
					"maxclass" : "button",
					"numinlets" : 1,
					"numoutlets" : 1,
					"outlettype" : [ "bang" ],
					"parameter_enable" : 0,
					"patching_rect" : [ 280.0, 635.0, 24.0, 24.0 ],
					"presentation" : 1,
					"presentation_rect" : [ 113.5, 643.0, 24.0, 24.0 ]
				}

			}
, 			{
				"box" : 				{
					"id" : "obj-133",
					"maxclass" : "button",
					"numinlets" : 1,
					"numoutlets" : 1,
					"outlettype" : [ "bang" ],
					"parameter_enable" : 0,
					"patching_rect" : [ 185.5, 635.0, 24.0, 24.0 ],
					"presentation" : 1,
					"presentation_rect" : [ 84.0, 613.0, 24.0, 24.0 ]
				}

			}
, 			{
				"box" : 				{
					"id" : "obj-134",
					"maxclass" : "button",
					"numinlets" : 1,
					"numoutlets" : 1,
					"outlettype" : [ "bang" ],
					"parameter_enable" : 0,
					"patching_rect" : [ 110.0, 635.0, 24.0, 24.0 ],
					"presentation" : 1,
					"presentation_rect" : [ 84.0, 586.0, 24.0, 24.0 ]
				}

			}
, 			{
				"box" : 				{
					"id" : "obj-135",
					"maxclass" : "button",
					"numinlets" : 1,
					"numoutlets" : 1,
					"outlettype" : [ "bang" ],
					"parameter_enable" : 0,
					"patching_rect" : [ 29.0, 635.0, 24.0, 24.0 ],
					"presentation" : 1,
					"presentation_rect" : [ 73.5, 559.0, 24.0, 24.0 ]
				}

			}
, 			{
				"box" : 				{
					"id" : "obj-131",
					"maxclass" : "comment",
					"numinlets" : 1,
					"numoutlets" : 0,
					"patching_rect" : [ 236.5, 613.0, 94.5, 20.0 ],
					"presentation" : 1,
					"presentation_rect" : [ 4.75, 645.0, 94.5, 20.0 ],
					"text" : "All of the Above"
				}

			}
, 			{
				"box" : 				{
					"id" : "obj-129",
					"maxclass" : "comment",
					"numinlets" : 1,
					"numoutlets" : 0,
					"patching_rect" : [ 165.0, 613.0, 65.0, 20.0 ],
					"presentation" : 1,
					"presentation_rect" : [ 8.5, 615.0, 65.0, 20.0 ],
					"text" : "Swimming"
				}

			}
, 			{
				"box" : 				{
					"id" : "obj-127",
					"maxclass" : "comment",
					"numinlets" : 1,
					"numoutlets" : 0,
					"patching_rect" : [ 87.0, 613.0, 70.0, 20.0 ],
					"presentation" : 1,
					"presentation_rect" : [ 6.0, 588.0, 70.0, 20.0 ],
					"text" : "Badminton"
				}

			}
, 			{
				"box" : 				{
					"id" : "obj-125",
					"maxclass" : "comment",
					"numinlets" : 1,
					"numoutlets" : 0,
					"patching_rect" : [ 21.5, 613.0, 50.0, 20.0 ],
					"presentation" : 1,
					"presentation_rect" : [ 16.0, 561.0, 50.0, 20.0 ],
					"text" : "Tennis"
				}

			}
, 			{
				"box" : 				{
					"id" : "obj-123",
					"maxclass" : "comment",
					"numinlets" : 1,
					"numoutlets" : 0,
					"patching_rect" : [ 10.0, 584.0, 174.5, 20.0 ],
					"presentation" : 1,
					"presentation_rect" : [ 13.0, 527.0, 174.5, 20.0 ],
					"text" : "4. Which of these is a sport?"
				}

			}
, 			{
				"box" : 				{
					"id" : "obj-121",
					"maxclass" : "message",
					"numinlets" : 2,
					"numoutlets" : 1,
					"outlettype" : [ "" ],
					"patching_rect" : [ 81.0, 542.0, 50.0, 22.0 ],
					"presentation" : 1,
					"presentation_rect" : [ 127.0, 445.0, 57.0, 22.0 ]
				}

			}
, 			{
				"box" : 				{
					"id" : "obj-116",
					"maxclass" : "message",
					"numinlets" : 2,
					"numoutlets" : 1,
					"outlettype" : [ "" ],
					"patching_rect" : [ 175.0, 498.0, 55.0, 22.0 ],
					"text" : "incorrect"
				}

			}
, 			{
				"box" : 				{
					"id" : "obj-117",
					"maxclass" : "message",
					"numinlets" : 2,
					"numoutlets" : 1,
					"outlettype" : [ "" ],
					"patching_rect" : [ 115.5, 498.0, 55.0, 22.0 ],
					"text" : "incorrect"
				}

			}
, 			{
				"box" : 				{
					"id" : "obj-118",
					"maxclass" : "message",
					"numinlets" : 2,
					"numoutlets" : 1,
					"outlettype" : [ "" ],
					"patching_rect" : [ 6.0, 498.0, 55.0, 22.0 ],
					"text" : "incorrect"
				}

			}
, 			{
				"box" : 				{
					"id" : "obj-119",
					"maxclass" : "message",
					"numinlets" : 2,
					"numoutlets" : 1,
					"outlettype" : [ "" ],
					"patching_rect" : [ 68.0, 498.0, 45.0, 22.0 ],
					"text" : "correct"
				}

			}
, 			{
				"box" : 				{
					"id" : "obj-113",
					"maxclass" : "button",
					"numinlets" : 1,
					"numoutlets" : 1,
					"outlettype" : [ "bang" ],
					"parameter_enable" : 0,
					"patching_rect" : [ 175.0, 462.0, 24.0, 24.0 ],
					"presentation" : 1,
					"presentation_rect" : [ 70.5, 484.0, 24.0, 24.0 ]
				}

			}
, 			{
				"box" : 				{
					"id" : "obj-111",
					"maxclass" : "button",
					"numinlets" : 1,
					"numoutlets" : 1,
					"outlettype" : [ "bang" ],
					"parameter_enable" : 0,
					"patching_rect" : [ 127.0, 462.0, 24.0, 24.0 ],
					"presentation" : 1,
					"presentation_rect" : [ 70.5, 455.0, 24.0, 24.0 ]
				}

			}
, 			{
				"box" : 				{
					"id" : "obj-109",
					"maxclass" : "button",
					"numinlets" : 1,
					"numoutlets" : 1,
					"outlettype" : [ "bang" ],
					"parameter_enable" : 0,
					"patching_rect" : [ 21.5, 462.0, 24.0, 24.0 ],
					"presentation" : 1,
					"presentation_rect" : [ 61.0, 396.0, 24.0, 24.0 ]
				}

			}
, 			{
				"box" : 				{
					"id" : "obj-107",
					"maxclass" : "button",
					"numinlets" : 1,
					"numoutlets" : 1,
					"outlettype" : [ "bang" ],
					"parameter_enable" : 0,
					"patching_rect" : [ 71.75, 462.0, 24.0, 24.0 ],
					"presentation" : 1,
					"presentation_rect" : [ 70.5, 424.0, 24.0, 24.0 ]
				}

			}
, 			{
				"box" : 				{
					"id" : "obj-105",
					"maxclass" : "comment",
					"numinlets" : 1,
					"numoutlets" : 0,
					"patching_rect" : [ 165.0, 440.0, 44.0, 20.0 ],
					"presentation" : 1,
					"presentation_rect" : [ 15.5, 486.0, 44.0, 20.0 ],
					"text" : "Sonic"
				}

			}
, 			{
				"box" : 				{
					"id" : "obj-103",
					"maxclass" : "comment",
					"numinlets" : 1,
					"numoutlets" : 0,
					"patching_rect" : [ 118.0, 440.0, 42.0, 20.0 ],
					"presentation" : 1,
					"presentation_rect" : [ 16.5, 457.0, 42.0, 20.0 ],
					"text" : "Mario"
				}

			}
, 			{
				"box" : 				{
					"id" : "obj-101",
					"maxclass" : "comment",
					"numinlets" : 1,
					"numoutlets" : 0,
					"patching_rect" : [ 16.5, 440.0, 34.0, 20.0 ],
					"presentation" : 1,
					"presentation_rect" : [ 16.5, 398.0, 34.0, 20.0 ],
					"text" : "Ryu"
				}

			}
, 			{
				"box" : 				{
					"id" : "obj-99",
					"maxclass" : "comment",
					"numinlets" : 1,
					"numoutlets" : 0,
					"patching_rect" : [ 54.75, 440.0, 57.5, 20.0 ],
					"presentation" : 1,
					"presentation_rect" : [ 4.75, 426.0, 57.5, 20.0 ],
					"text" : "Pickachu "
				}

			}
, 			{
				"box" : 				{
					"id" : "obj-97",
					"linecount" : 2,
					"maxclass" : "comment",
					"numinlets" : 1,
					"numoutlets" : 0,
					"patching_rect" : [ 8.5, 391.0, 206.0, 34.0 ],
					"presentation" : 1,
					"presentation_linecount" : 2,
					"presentation_rect" : [ 13.0, 353.0, 206.0, 34.0 ],
					"text" : "3. Which character is from the game Pokemon"
				}

			}
, 			{
				"box" : 				{
					"id" : "obj-95",
					"maxclass" : "message",
					"numinlets" : 2,
					"numoutlets" : 1,
					"outlettype" : [ "" ],
					"patching_rect" : [ 70.5, 346.0, 50.0, 22.0 ],
					"presentation" : 1,
					"presentation_rect" : [ 145.0, 273.0, 60.0, 22.0 ]
				}

			}
, 			{
				"box" : 				{
					"id" : "obj-89",
					"maxclass" : "message",
					"numinlets" : 2,
					"numoutlets" : 1,
					"outlettype" : [ "" ],
					"patching_rect" : [ 189.5, 299.0, 55.0, 22.0 ],
					"text" : "incorrect"
				}

			}
, 			{
				"box" : 				{
					"id" : "obj-90",
					"maxclass" : "message",
					"numinlets" : 2,
					"numoutlets" : 1,
					"outlettype" : [ "" ],
					"patching_rect" : [ 68.0, 299.0, 55.0, 22.0 ],
					"text" : "incorrect"
				}

			}
, 			{
				"box" : 				{
					"id" : "obj-91",
					"maxclass" : "message",
					"numinlets" : 2,
					"numoutlets" : 1,
					"outlettype" : [ "" ],
					"patching_rect" : [ 8.0, 299.0, 55.0, 22.0 ],
					"text" : "incorrect"
				}

			}
, 			{
				"box" : 				{
					"id" : "obj-92",
					"maxclass" : "message",
					"numinlets" : 2,
					"numoutlets" : 1,
					"outlettype" : [ "" ],
					"patching_rect" : [ 133.0, 299.0, 45.0, 22.0 ],
					"text" : "correct"
				}

			}
, 			{
				"box" : 				{
					"id" : "obj-86",
					"maxclass" : "button",
					"numinlets" : 1,
					"numoutlets" : 1,
					"outlettype" : [ "bang" ],
					"parameter_enable" : 0,
					"patching_rect" : [ 198.5, 267.0, 24.0, 24.0 ],
					"presentation" : 1,
					"presentation_rect" : [ 61.0, 309.0, 24.0, 24.0 ]
				}

			}
, 			{
				"box" : 				{
					"id" : "obj-84",
					"maxclass" : "button",
					"numinlets" : 1,
					"numoutlets" : 1,
					"outlettype" : [ "bang" ],
					"parameter_enable" : 0,
					"patching_rect" : [ 135.5, 267.0, 24.0, 24.0 ],
					"presentation" : 1,
					"presentation_rect" : [ 94.0, 281.0, 24.0, 24.0 ]
				}

			}
, 			{
				"box" : 				{
					"id" : "obj-82",
					"maxclass" : "button",
					"numinlets" : 1,
					"numoutlets" : 1,
					"outlettype" : [ "bang" ],
					"parameter_enable" : 0,
					"patching_rect" : [ 71.5, 267.0, 24.0, 24.0 ],
					"presentation" : 1,
					"presentation_rect" : [ 70.5, 247.0, 24.0, 24.0 ]
				}

			}
, 			{
				"box" : 				{
					"id" : "obj-80",
					"maxclass" : "button",
					"numinlets" : 1,
					"numoutlets" : 1,
					"outlettype" : [ "bang" ],
					"parameter_enable" : 0,
					"patching_rect" : [ 23.5, 267.0, 24.0, 24.0 ],
					"presentation" : 1,
					"presentation_rect" : [ 70.5, 212.0, 24.0, 24.0 ]
				}

			}
, 			{
				"box" : 				{
					"id" : "obj-78",
					"maxclass" : "comment",
					"numinlets" : 1,
					"numoutlets" : 0,
					"patching_rect" : [ 189.5, 245.0, 42.0, 20.0 ],
					"presentation" : 1,
					"presentation_rect" : [ 13.0, 311.0, 42.0, 20.0 ],
					"text" : "Taipei"
				}

			}
, 			{
				"box" : 				{
					"id" : "obj-76",
					"maxclass" : "comment",
					"numinlets" : 1,
					"numoutlets" : 0,
					"patching_rect" : [ 58.5, 245.0, 50.0, 20.0 ],
					"presentation" : 1,
					"presentation_rect" : [ 9.0, 249.0, 50.0, 20.0 ],
					"text" : "Boston"
				}

			}
, 			{
				"box" : 				{
					"id" : "obj-74",
					"maxclass" : "comment",
					"numinlets" : 1,
					"numoutlets" : 0,
					"patching_rect" : [ 16.5, 245.0, 38.0, 20.0 ],
					"presentation" : 1,
					"presentation_rect" : [ 15.0, 214.0, 38.0, 20.0 ],
					"text" : "Paris"
				}

			}
, 			{
				"box" : 				{
					"id" : "obj-72",
					"maxclass" : "comment",
					"numinlets" : 1,
					"numoutlets" : 0,
					"patching_rect" : [ 110.5, 245.0, 74.0, 20.0 ],
					"presentation" : 1,
					"presentation_rect" : [ 9.0, 283.0, 74.0, 20.0 ],
					"text" : "Sacremento"
				}

			}
, 			{
				"box" : 				{
					"id" : "obj-70",
					"maxclass" : "comment",
					"numinlets" : 1,
					"numoutlets" : 0,
					"patching_rect" : [ 21.0, 215.0, 210.0, 20.0 ],
					"presentation" : 1,
					"presentation_rect" : [ 11.0, 182.0, 210.0, 20.0 ],
					"text" : "2. What is the captial of California?"
				}

			}
, 			{
				"box" : 				{
					"id" : "obj-68",
					"maxclass" : "message",
					"numinlets" : 2,
					"numoutlets" : 1,
					"outlettype" : [ "" ],
					"patching_rect" : [ 118.0, 178.0, 50.0, 22.0 ],
					"presentation" : 1,
					"presentation_rect" : [ 177.0, 87.0, 57.0, 22.0 ]
				}

			}
, 			{
				"box" : 				{
					"id" : "obj-66",
					"maxclass" : "message",
					"numinlets" : 2,
					"numoutlets" : 1,
					"outlettype" : [ "" ],
					"patching_rect" : [ 284.0, 129.0, 55.0, 22.0 ],
					"text" : "incorrect"
				}

			}
, 			{
				"box" : 				{
					"id" : "obj-64",
					"maxclass" : "message",
					"numinlets" : 2,
					"numoutlets" : 1,
					"outlettype" : [ "" ],
					"patching_rect" : [ 209.0, 129.0, 55.0, 22.0 ],
					"text" : "incorrect"
				}

			}
, 			{
				"box" : 				{
					"id" : "obj-62",
					"maxclass" : "message",
					"numinlets" : 2,
					"numoutlets" : 1,
					"outlettype" : [ "" ],
					"patching_rect" : [ 120.0, 129.0, 55.0, 22.0 ],
					"text" : "incorrect"
				}

			}
, 			{
				"box" : 				{
					"id" : "obj-60",
					"maxclass" : "message",
					"numinlets" : 2,
					"numoutlets" : 1,
					"outlettype" : [ "" ],
					"patching_rect" : [ 33.0, 129.0, 45.0, 22.0 ],
					"text" : "correct"
				}

			}
, 			{
				"box" : 				{
					"id" : "obj-56",
					"maxclass" : "button",
					"numinlets" : 1,
					"numoutlets" : 1,
					"outlettype" : [ "bang" ],
					"parameter_enable" : 0,
					"patching_rect" : [ 297.0, 90.0, 24.0, 24.0 ],
					"presentation" : 1,
					"presentation_rect" : [ 94.0, 140.0, 24.0, 24.0 ]
				}

			}
, 			{
				"box" : 				{
					"id" : "obj-54",
					"maxclass" : "button",
					"numinlets" : 1,
					"numoutlets" : 1,
					"outlettype" : [ "bang" ],
					"parameter_enable" : 0,
					"patching_rect" : [ 222.0, 90.0, 24.0, 24.0 ],
					"presentation" : 1,
					"presentation_rect" : [ 112.5, 109.0, 24.0, 24.0 ]
				}

			}
, 			{
				"box" : 				{
					"id" : "obj-52",
					"maxclass" : "button",
					"numinlets" : 1,
					"numoutlets" : 1,
					"outlettype" : [ "bang" ],
					"parameter_enable" : 0,
					"patching_rect" : [ 133.0, 90.0, 24.0, 24.0 ],
					"presentation" : 1,
					"presentation_rect" : [ 107.5, 79.0, 24.0, 24.0 ]
				}

			}
, 			{
				"box" : 				{
					"id" : "obj-50",
					"maxclass" : "button",
					"numinlets" : 1,
					"numoutlets" : 1,
					"outlettype" : [ "bang" ],
					"parameter_enable" : 0,
					"patching_rect" : [ 46.0, 90.0, 24.0, 24.0 ],
					"presentation" : 1,
					"presentation_rect" : [ 108.0, 48.0, 24.0, 24.0 ]
				}

			}
, 			{
				"box" : 				{
					"id" : "obj-48",
					"maxclass" : "comment",
					"numinlets" : 1,
					"numoutlets" : 0,
					"patching_rect" : [ 286.0, 68.0, 45.0, 20.0 ],
					"presentation" : 1,
					"presentation_rect" : [ 40.0, 140.0, 45.0, 20.0 ],
					"text" : "Naruto"
				}

			}
, 			{
				"box" : 				{
					"id" : "obj-46",
					"maxclass" : "comment",
					"numinlets" : 1,
					"numoutlets" : 0,
					"patching_rect" : [ 189.0, 68.0, 89.0, 20.0 ],
					"presentation" : 1,
					"presentation_rect" : [ 14.5, 111.0, 89.0, 20.0 ],
					"text" : "Attack on Titan"
				}

			}
, 			{
				"box" : 				{
					"id" : "obj-42",
					"maxclass" : "comment",
					"numinlets" : 1,
					"numoutlets" : 0,
					"patching_rect" : [ 104.0, 68.0, 81.0, 20.0 ],
					"presentation" : 1,
					"presentation_rect" : [ 18.5, 79.0, 81.0, 20.0 ],
					"text" : "Goblin slayer"
				}

			}
, 			{
				"box" : 				{
					"id" : "obj-40",
					"maxclass" : "comment",
					"numinlets" : 1,
					"numoutlets" : 0,
					"patching_rect" : [ 21.0, 68.0, 74.0, 20.0 ],
					"presentation" : 1,
					"presentation_rect" : [ 22.0, 48.0, 74.0, 20.0 ],
					"text" : "One piece"
				}

			}
, 			{
				"box" : 				{
					"id" : "obj-38",
					"linecount" : 2,
					"maxclass" : "comment",
					"numinlets" : 1,
					"numoutlets" : 0,
					"patching_rect" : [ 31.0, 29.0, 262.0, 34.0 ],
					"presentation" : 1,
					"presentation_linecount" : 2,
					"presentation_rect" : [ 8.0, 6.0, 262.0, 34.0 ],
					"text" : "1. Which of the following anime series is your favorite?"
				}

			}
, 			{
				"box" : 				{
					"id" : "obj-36",
					"maxclass" : "comment",
					"numinlets" : 1,
					"numoutlets" : 0,
					"patching_rect" : [ 420.0, 13.0, 414.0, 20.0 ],
					"presentation" : 1,
					"presentation_rect" : [ 440.0, 6.0, 401.0, 20.0 ],
					"text" : "Welcome to the quiz! Answer the questions by clicking the buttons below."
				}

			}
 ],
		"lines" : [ 			{
				"patchline" : 				{
					"destination" : [ "obj-119", 0 ],
					"source" : [ "obj-107", 0 ]
				}

			}
, 			{
				"patchline" : 				{
					"destination" : [ "obj-118", 0 ],
					"source" : [ "obj-109", 0 ]
				}

			}
, 			{
				"patchline" : 				{
					"destination" : [ "obj-117", 0 ],
					"source" : [ "obj-111", 0 ]
				}

			}
, 			{
				"patchline" : 				{
					"destination" : [ "obj-116", 0 ],
					"source" : [ "obj-113", 0 ]
				}

			}
, 			{
				"patchline" : 				{
					"destination" : [ "obj-121", 1 ],
					"source" : [ "obj-116", 0 ]
				}

			}
, 			{
				"patchline" : 				{
					"destination" : [ "obj-121", 1 ],
					"source" : [ "obj-117", 0 ]
				}

			}
, 			{
				"patchline" : 				{
					"destination" : [ "obj-121", 1 ],
					"source" : [ "obj-118", 0 ]
				}

			}
, 			{
				"patchline" : 				{
					"destination" : [ "obj-121", 1 ],
					"source" : [ "obj-119", 0 ]
				}

			}
, 			{
				"patchline" : 				{
					"destination" : [ "obj-139", 0 ],
					"source" : [ "obj-132", 0 ]
				}

			}
, 			{
				"patchline" : 				{
					"destination" : [ "obj-136", 0 ],
					"source" : [ "obj-133", 0 ]
				}

			}
, 			{
				"patchline" : 				{
					"destination" : [ "obj-137", 0 ],
					"source" : [ "obj-134", 0 ]
				}

			}
, 			{
				"patchline" : 				{
					"destination" : [ "obj-138", 0 ],
					"source" : [ "obj-135", 0 ]
				}

			}
, 			{
				"patchline" : 				{
					"destination" : [ "obj-141", 1 ],
					"source" : [ "obj-136", 0 ]
				}

			}
, 			{
				"patchline" : 				{
					"destination" : [ "obj-141", 1 ],
					"source" : [ "obj-137", 0 ]
				}

			}
, 			{
				"patchline" : 				{
					"destination" : [ "obj-141", 1 ],
					"source" : [ "obj-138", 0 ]
				}

			}
, 			{
				"patchline" : 				{
					"destination" : [ "obj-141", 1 ],
					"source" : [ "obj-139", 0 ]
				}

			}
, 			{
				"patchline" : 				{
					"destination" : [ "obj-163", 0 ],
					"source" : [ "obj-153", 0 ]
				}

			}
, 			{
				"patchline" : 				{
					"destination" : [ "obj-162", 0 ],
					"source" : [ "obj-155", 0 ]
				}

			}
, 			{
				"patchline" : 				{
					"destination" : [ "obj-161", 0 ],
					"source" : [ "obj-157", 0 ]
				}

			}
, 			{
				"patchline" : 				{
					"destination" : [ "obj-160", 0 ],
					"source" : [ "obj-159", 0 ]
				}

			}
, 			{
				"patchline" : 				{
					"destination" : [ "obj-165", 1 ],
					"source" : [ "obj-160", 0 ]
				}

			}
, 			{
				"patchline" : 				{
					"destination" : [ "obj-165", 1 ],
					"source" : [ "obj-161", 0 ]
				}

			}
, 			{
				"patchline" : 				{
					"destination" : [ "obj-165", 1 ],
					"source" : [ "obj-162", 0 ]
				}

			}
, 			{
				"patchline" : 				{
					"destination" : [ "obj-165", 1 ],
					"source" : [ "obj-163", 0 ]
				}

			}
, 			{
				"patchline" : 				{
					"destination" : [ "obj-190", 0 ],
					"order" : 0,
					"source" : [ "obj-180", 0 ]
				}

			}
, 			{
				"patchline" : 				{
					"destination" : [ "obj-196", 0 ],
					"order" : 1,
					"source" : [ "obj-180", 0 ]
				}

			}
, 			{
				"patchline" : 				{
					"destination" : [ "obj-189", 0 ],
					"order" : 0,
					"source" : [ "obj-182", 0 ]
				}

			}
, 			{
				"patchline" : 				{
					"destination" : [ "obj-198", 0 ],
					"order" : 1,
					"source" : [ "obj-182", 0 ]
				}

			}
, 			{
				"patchline" : 				{
					"destination" : [ "obj-188", 0 ],
					"order" : 0,
					"source" : [ "obj-184", 0 ]
				}

			}
, 			{
				"patchline" : 				{
					"destination" : [ "obj-201", 0 ],
					"order" : 1,
					"source" : [ "obj-184", 0 ]
				}

			}
, 			{
				"patchline" : 				{
					"destination" : [ "obj-187", 0 ],
					"order" : 0,
					"source" : [ "obj-186", 0 ]
				}

			}
, 			{
				"patchline" : 				{
					"destination" : [ "obj-203", 0 ],
					"order" : 1,
					"source" : [ "obj-186", 0 ]
				}

			}
, 			{
				"patchline" : 				{
					"destination" : [ "obj-194", 1 ],
					"source" : [ "obj-187", 0 ]
				}

			}
, 			{
				"patchline" : 				{
					"destination" : [ "obj-194", 1 ],
					"source" : [ "obj-188", 0 ]
				}

			}
, 			{
				"patchline" : 				{
					"destination" : [ "obj-194", 1 ],
					"source" : [ "obj-189", 0 ]
				}

			}
, 			{
				"patchline" : 				{
					"destination" : [ "obj-194", 1 ],
					"source" : [ "obj-190", 0 ]
				}

			}
, 			{
				"patchline" : 				{
					"destination" : [ "obj-194", 0 ],
					"source" : [ "obj-196", 0 ]
				}

			}
, 			{
				"patchline" : 				{
					"destination" : [ "obj-194", 0 ],
					"source" : [ "obj-198", 0 ]
				}

			}
, 			{
				"patchline" : 				{
					"destination" : [ "obj-194", 0 ],
					"source" : [ "obj-201", 0 ]
				}

			}
, 			{
				"patchline" : 				{
					"destination" : [ "obj-194", 0 ],
					"source" : [ "obj-203", 0 ]
				}

			}
, 			{
				"patchline" : 				{
					"destination" : [ "obj-224", 0 ],
					"source" : [ "obj-215", 0 ]
				}

			}
, 			{
				"patchline" : 				{
					"destination" : [ "obj-223", 0 ],
					"source" : [ "obj-217", 0 ]
				}

			}
, 			{
				"patchline" : 				{
					"destination" : [ "obj-225", 0 ],
					"source" : [ "obj-219", 0 ]
				}

			}
, 			{
				"patchline" : 				{
					"destination" : [ "obj-222", 0 ],
					"source" : [ "obj-221", 0 ]
				}

			}
, 			{
				"patchline" : 				{
					"destination" : [ "obj-227", 1 ],
					"source" : [ "obj-222", 0 ]
				}

			}
, 			{
				"patchline" : 				{
					"destination" : [ "obj-227", 1 ],
					"source" : [ "obj-223", 0 ]
				}

			}
, 			{
				"patchline" : 				{
					"destination" : [ "obj-227", 1 ],
					"source" : [ "obj-224", 0 ]
				}

			}
, 			{
				"patchline" : 				{
					"destination" : [ "obj-227", 1 ],
					"source" : [ "obj-225", 0 ]
				}

			}
, 			{
				"patchline" : 				{
					"destination" : [ "obj-248", 0 ],
					"source" : [ "obj-239", 0 ]
				}

			}
, 			{
				"patchline" : 				{
					"destination" : [ "obj-249", 0 ],
					"source" : [ "obj-241", 0 ]
				}

			}
, 			{
				"patchline" : 				{
					"destination" : [ "obj-247", 0 ],
					"source" : [ "obj-243", 0 ]
				}

			}
, 			{
				"patchline" : 				{
					"destination" : [ "obj-246", 0 ],
					"source" : [ "obj-245", 0 ]
				}

			}
, 			{
				"patchline" : 				{
					"destination" : [ "obj-251", 1 ],
					"source" : [ "obj-246", 0 ]
				}

			}
, 			{
				"patchline" : 				{
					"destination" : [ "obj-251", 1 ],
					"source" : [ "obj-247", 0 ]
				}

			}
, 			{
				"patchline" : 				{
					"destination" : [ "obj-251", 1 ],
					"source" : [ "obj-248", 0 ]
				}

			}
, 			{
				"patchline" : 				{
					"destination" : [ "obj-251", 1 ],
					"source" : [ "obj-249", 0 ]
				}

			}
, 			{
				"patchline" : 				{
					"destination" : [ "obj-272", 0 ],
					"source" : [ "obj-263", 0 ]
				}

			}
, 			{
				"patchline" : 				{
					"destination" : [ "obj-273", 0 ],
					"source" : [ "obj-265", 0 ]
				}

			}
, 			{
				"patchline" : 				{
					"destination" : [ "obj-271", 0 ],
					"source" : [ "obj-267", 0 ]
				}

			}
, 			{
				"patchline" : 				{
					"destination" : [ "obj-270", 0 ],
					"source" : [ "obj-269", 0 ]
				}

			}
, 			{
				"patchline" : 				{
					"destination" : [ "obj-275", 1 ],
					"source" : [ "obj-270", 0 ]
				}

			}
, 			{
				"patchline" : 				{
					"destination" : [ "obj-275", 1 ],
					"source" : [ "obj-271", 0 ]
				}

			}
, 			{
				"patchline" : 				{
					"destination" : [ "obj-275", 1 ],
					"source" : [ "obj-272", 0 ]
				}

			}
, 			{
				"patchline" : 				{
					"destination" : [ "obj-275", 1 ],
					"source" : [ "obj-273", 0 ]
				}

			}
, 			{
				"patchline" : 				{
					"destination" : [ "obj-294", 0 ],
					"source" : [ "obj-287", 0 ]
				}

			}
, 			{
				"patchline" : 				{
					"destination" : [ "obj-295", 0 ],
					"source" : [ "obj-289", 0 ]
				}

			}
, 			{
				"patchline" : 				{
					"destination" : [ "obj-296", 0 ],
					"source" : [ "obj-291", 0 ]
				}

			}
, 			{
				"patchline" : 				{
					"destination" : [ "obj-297", 0 ],
					"source" : [ "obj-293", 0 ]
				}

			}
, 			{
				"patchline" : 				{
					"destination" : [ "obj-299", 1 ],
					"source" : [ "obj-294", 0 ]
				}

			}
, 			{
				"patchline" : 				{
					"destination" : [ "obj-299", 1 ],
					"source" : [ "obj-295", 0 ]
				}

			}
, 			{
				"patchline" : 				{
					"destination" : [ "obj-299", 1 ],
					"source" : [ "obj-296", 0 ]
				}

			}
, 			{
				"patchline" : 				{
					"destination" : [ "obj-299", 1 ],
					"source" : [ "obj-297", 0 ]
				}

			}
, 			{
				"patchline" : 				{
					"destination" : [ "obj-318", 0 ],
					"source" : [ "obj-311", 0 ]
				}

			}
, 			{
				"patchline" : 				{
					"destination" : [ "obj-319", 0 ],
					"source" : [ "obj-313", 0 ]
				}

			}
, 			{
				"patchline" : 				{
					"destination" : [ "obj-321", 0 ],
					"source" : [ "obj-315", 0 ]
				}

			}
, 			{
				"patchline" : 				{
					"destination" : [ "obj-320", 0 ],
					"source" : [ "obj-317", 0 ]
				}

			}
, 			{
				"patchline" : 				{
					"destination" : [ "obj-323", 1 ],
					"source" : [ "obj-318", 0 ]
				}

			}
, 			{
				"patchline" : 				{
					"destination" : [ "obj-323", 1 ],
					"source" : [ "obj-319", 0 ]
				}

			}
, 			{
				"patchline" : 				{
					"destination" : [ "obj-323", 1 ],
					"source" : [ "obj-320", 0 ]
				}

			}
, 			{
				"patchline" : 				{
					"destination" : [ "obj-323", 1 ],
					"source" : [ "obj-321", 0 ]
				}

			}
, 			{
				"patchline" : 				{
					"destination" : [ "obj-345", 0 ],
					"source" : [ "obj-335", 0 ]
				}

			}
, 			{
				"patchline" : 				{
					"destination" : [ "obj-342", 0 ],
					"source" : [ "obj-337", 0 ]
				}

			}
, 			{
				"patchline" : 				{
					"destination" : [ "obj-343", 0 ],
					"source" : [ "obj-339", 0 ]
				}

			}
, 			{
				"patchline" : 				{
					"destination" : [ "obj-344", 0 ],
					"source" : [ "obj-341", 0 ]
				}

			}
, 			{
				"patchline" : 				{
					"destination" : [ "obj-347", 1 ],
					"source" : [ "obj-342", 0 ]
				}

			}
, 			{
				"patchline" : 				{
					"destination" : [ "obj-347", 1 ],
					"source" : [ "obj-343", 0 ]
				}

			}
, 			{
				"patchline" : 				{
					"destination" : [ "obj-347", 1 ],
					"source" : [ "obj-344", 0 ]
				}

			}
, 			{
				"patchline" : 				{
					"destination" : [ "obj-347", 1 ],
					"source" : [ "obj-345", 0 ]
				}

			}
, 			{
				"patchline" : 				{
					"destination" : [ "obj-60", 0 ],
					"source" : [ "obj-50", 0 ]
				}

			}
, 			{
				"patchline" : 				{
					"destination" : [ "obj-62", 0 ],
					"source" : [ "obj-52", 0 ]
				}

			}
, 			{
				"patchline" : 				{
					"destination" : [ "obj-64", 0 ],
					"source" : [ "obj-54", 0 ]
				}

			}
, 			{
				"patchline" : 				{
					"destination" : [ "obj-66", 0 ],
					"source" : [ "obj-56", 0 ]
				}

			}
, 			{
				"patchline" : 				{
					"destination" : [ "obj-68", 1 ],
					"source" : [ "obj-60", 0 ]
				}

			}
, 			{
				"patchline" : 				{
					"destination" : [ "obj-68", 1 ],
					"source" : [ "obj-62", 0 ]
				}

			}
, 			{
				"patchline" : 				{
					"destination" : [ "obj-68", 1 ],
					"source" : [ "obj-64", 0 ]
				}

			}
, 			{
				"patchline" : 				{
					"destination" : [ "obj-68", 1 ],
					"source" : [ "obj-66", 0 ]
				}

			}
, 			{
				"patchline" : 				{
					"destination" : [ "obj-91", 0 ],
					"source" : [ "obj-80", 0 ]
				}

			}
, 			{
				"patchline" : 				{
					"destination" : [ "obj-90", 0 ],
					"source" : [ "obj-82", 0 ]
				}

			}
, 			{
				"patchline" : 				{
					"destination" : [ "obj-92", 0 ],
					"source" : [ "obj-84", 0 ]
				}

			}
, 			{
				"patchline" : 				{
					"destination" : [ "obj-89", 0 ],
					"source" : [ "obj-86", 0 ]
				}

			}
, 			{
				"patchline" : 				{
					"destination" : [ "obj-95", 1 ],
					"source" : [ "obj-89", 0 ]
				}

			}
, 			{
				"patchline" : 				{
					"destination" : [ "obj-95", 1 ],
					"source" : [ "obj-90", 0 ]
				}

			}
, 			{
				"patchline" : 				{
					"destination" : [ "obj-95", 1 ],
					"source" : [ "obj-91", 0 ]
				}

			}
, 			{
				"patchline" : 				{
					"destination" : [ "obj-95", 1 ],
					"source" : [ "obj-92", 0 ]
				}

			}
 ],
		"dependency_cache" : [  ],
		"autosave" : 0
	}

}
