{
	"patcher" : 	{
		"fileversion" : 1,
		"appversion" : 		{
			"major" : 8,
			"minor" : 6,
			"revision" : 4,
			"architecture" : "x64",
			"modernui" : 1
		}
,
		"classnamespace" : "box",
		"rect" : [ 34.0, 76.0, 1301.0, 755.0 ],
		"bglocked" : 0,
		"openinpresentation" : 0,
		"default_fontsize" : 12.0,
		"default_fontface" : 0,
		"default_fontname" : "Arial",
		"gridonopen" : 1,
		"gridsize" : [ 15.0, 15.0 ],
		"gridsnaponopen" : 1,
		"objectsnaponopen" : 1,
		"statusbarvisible" : 2,
		"toolbarvisible" : 1,
		"lefttoolbarpinned" : 0,
		"toptoolbarpinned" : 0,
		"righttoolbarpinned" : 0,
		"bottomtoolbarpinned" : 0,
		"toolbars_unpinned_last_save" : 0,
		"tallnewobj" : 0,
		"boxanimatetime" : 200,
		"enablehscroll" : 1,
		"enablevscroll" : 1,
		"devicewidth" : 0.0,
		"description" : "",
		"digest" : "",
		"tags" : "",
		"style" : "",
		"subpatcher_template" : "",
		"assistshowspatchername" : 0,
		"boxes" : [ 			{
				"box" : 				{
					"bgcolor" : [ 0.03921568627451, 0.662745098039216, 0.815686274509804, 1.0 ],
					"blinkcolor" : [ 0.811764705882353, 0.019607843137255, 0.815686274509804, 1.0 ],
					"id" : "obj-32",
					"maxclass" : "button",
					"numinlets" : 1,
					"numoutlets" : 1,
					"outlettype" : [ "bang" ],
					"outlinecolor" : [ 0.007843137254902, 0.815686274509804, 0.074509803921569, 1.0 ],
					"parameter_enable" : 0,
					"patching_rect" : [ 879.487127065658569, 278.999978303909302, 24.0, 24.0 ],
					"presentation" : 1,
					"presentation_rect" : [ 745.263100147247314, 276.736820816993713, 171.578934073448181, 171.578934073448181 ]
				}

			}
, 			{
				"box" : 				{
					"bgmode" : 0,
					"border" : 0,
					"clickthrough" : 0,
					"enablehscroll" : 0,
					"enablevscroll" : 0,
					"id" : "obj-27",
					"lockeddragscroll" : 0,
					"lockedsize" : 0,
					"maxclass" : "bpatcher",
					"name" : "beat.maxpat",
					"numinlets" : 0,
					"numoutlets" : 1,
					"offset" : [ 0.0, 0.0 ],
					"outlettype" : [ "bang" ],
					"patching_rect" : [ 879.487127065658569, 47.43589460849762, 151.578935623168945, 193.511456847190857 ],
					"presentation" : 1,
					"presentation_rect" : [ 745.263100147247314, 77.894730806350708, 171.578934073448181, 196.842090010643005 ],
					"viewvisibility" : 1
				}

			}
, 			{
				"box" : 				{
					"id" : "obj-42",
					"maxclass" : "message",
					"numinlets" : 2,
					"numoutlets" : 1,
					"outlettype" : [ "" ],
					"patching_rect" : [ 282.051265239715576, 441.025614738464355, 32.0, 22.0 ],
					"text" : "7 $1"
				}

			}
, 			{
				"box" : 				{
					"id" : "obj-40",
					"maxclass" : "newobj",
					"numinlets" : 0,
					"numoutlets" : 1,
					"outlettype" : [ "" ],
					"patching_rect" : [ 256.41024112701416, 346.153825521469116, 55.0, 22.0 ],
					"text" : "r volume"
				}

			}
, 			{
				"box" : 				{
					"id" : "obj-39",
					"maxclass" : "newobj",
					"numinlets" : 1,
					"numoutlets" : 0,
					"patching_rect" : [ 84.615379571914673, 529.487147927284241, 47.0, 22.0 ],
					"presentation" : 1,
					"presentation_rect" : [ 224.210508942604065, 336.315763413906097, 47.0, 22.0 ],
					"text" : "midiout"
				}

			}
, 			{
				"box" : 				{
					"id" : "obj-38",
					"maxclass" : "newobj",
					"numinlets" : 7,
					"numoutlets" : 2,
					"outlettype" : [ "int", "" ],
					"patching_rect" : [ 80.76922595500946, 494.871765375137329, 82.0, 22.0 ],
					"presentation" : 1,
					"presentation_rect" : [ 207.368404984474182, 312.105238974094391, 82.0, 22.0 ],
					"text" : "midiformat"
				}

			}
, 			{
				"box" : 				{
					"id" : "obj-37",
					"maxclass" : "newobj",
					"numinlets" : 2,
					"numoutlets" : 1,
					"outlettype" : [ "" ],
					"patching_rect" : [ 80.76922595500946, 432.05125629901886, 48.0, 22.0 ],
					"text" : "pak 0 0"
				}

			}
, 			{
				"box" : 				{
					"id" : "obj-36",
					"maxclass" : "newobj",
					"numinlets" : 3,
					"numoutlets" : 2,
					"outlettype" : [ "float", "float" ],
					"patching_rect" : [ 69.230765104293823, 380.769208073616028, 108.0, 22.0 ],
					"presentation" : 1,
					"presentation_rect" : [ 193.684195518493652, 286.842083036899567, 108.0, 22.0 ],
					"text" : "makenote 100 250"
				}

			}
, 			{
				"box" : 				{
					"id" : "obj-35",
					"maxclass" : "newobj",
					"numinlets" : 0,
					"numoutlets" : 1,
					"outlettype" : [ "" ],
					"patching_rect" : [ 69.230765104293823, 335.89741587638855, 39.0, 22.0 ],
					"text" : "r note"
				}

			}
, 			{
				"box" : 				{
					"id" : "obj-18",
					"maxclass" : "number",
					"numinlets" : 1,
					"numoutlets" : 2,
					"outlettype" : [ "", "bang" ],
					"parameter_enable" : 0,
					"patching_rect" : [ 635.789424419403076, 412.46960985660553, 50.0, 22.0 ],
					"presentation" : 1,
					"presentation_rect" : [ 613.684162974357605, 228.421034932136536, 72.63157331943512, 22.0 ]
				}

			}
, 			{
				"box" : 				{
					"id" : "obj-16",
					"maxclass" : "newobj",
					"numinlets" : 2,
					"numoutlets" : 1,
					"outlettype" : [ "int" ],
					"patching_rect" : [ 635.789424419403076, 355.627508997917175, 49.0, 22.0 ],
					"presentation" : 1,
					"presentation_rect" : [ 553.947325110435486, 228.421034932136536, 49.0, 22.0 ],
					"text" : "- 10000"
				}

			}
, 			{
				"box" : 				{
					"id" : "obj-15",
					"maxclass" : "newobj",
					"numinlets" : 0,
					"numoutlets" : 1,
					"outlettype" : [ "" ],
					"patching_rect" : [ 623.157846450805664, 294.57488214969635, 57.0, 22.0 ],
					"text" : "r number"
				}

			}
, 			{
				"box" : 				{
					"id" : "obj-14",
					"maxclass" : "number",
					"numinlets" : 1,
					"numoutlets" : 2,
					"outlettype" : [ "", "bang" ],
					"parameter_enable" : 0,
					"patching_rect" : [ 533.684169173240662, 412.46960985660553, 50.0, 22.0 ],
					"presentation" : 1,
					"presentation_rect" : [ 613.684162974357605, 168.473670303821564, 50.0, 22.0 ]
				}

			}
, 			{
				"box" : 				{
					"id" : "obj-10",
					"maxclass" : "newobj",
					"numinlets" : 2,
					"numoutlets" : 1,
					"outlettype" : [ "int" ],
					"patching_rect" : [ 543.157852649688721, 346.153825521469116, 43.0, 22.0 ],
					"presentation" : 1,
					"presentation_rect" : [ 556.947325110435486, 168.473670303821564, 43.0, 22.0 ],
					"text" : "* 1000"
				}

			}
, 			{
				"box" : 				{
					"id" : "obj-9",
					"maxclass" : "newobj",
					"numinlets" : 0,
					"numoutlets" : 1,
					"outlettype" : [ "" ],
					"patching_rect" : [ 539.999958157539368, 294.57488214969635, 42.0, 22.0 ],
					"text" : "r input"
				}

			}
, 			{
				"box" : 				{
					"id" : "obj-6",
					"maxclass" : "number",
					"numinlets" : 1,
					"numoutlets" : 2,
					"outlettype" : [ "", "bang" ],
					"parameter_enable" : 0,
					"patching_rect" : [ 437.894702911376953, 405.101189374923706, 50.0, 22.0 ],
					"presentation" : 1,
					"presentation_rect" : [ 613.684162974357605, 117.89472770690918, 50.0, 22.0 ]
				}

			}
, 			{
				"box" : 				{
					"id" : "obj-4",
					"maxclass" : "newobj",
					"numinlets" : 2,
					"numoutlets" : 1,
					"outlettype" : [ "int" ],
					"patching_rect" : [ 436.842071413993835, 339.83803653717041, 39.0, 22.0 ],
					"presentation" : 1,
					"presentation_rect" : [ 558.947325110435486, 117.89472770690918, 39.0, 22.0 ],
					"text" : "+ 100"
				}

			}
, 			{
				"box" : 				{
					"id" : "obj-3",
					"maxclass" : "newobj",
					"numinlets" : 0,
					"numoutlets" : 1,
					"outlettype" : [ "" ],
					"patching_rect" : [ 419.999967455863953, 284.048567175865173, 77.0, 22.0 ],
					"text" : "receive math"
				}

			}
, 			{
				"box" : 				{
					"bgmode" : 0,
					"border" : 0,
					"clickthrough" : 0,
					"enablehscroll" : 0,
					"enablevscroll" : 0,
					"id" : "obj-2",
					"lockeddragscroll" : 0,
					"lockedsize" : 0,
					"maxclass" : "bpatcher",
					"name" : "math.maxpat",
					"numinlets" : 0,
					"numoutlets" : 0,
					"offset" : [ 0.0, 0.0 ],
					"patching_rect" : [ 410.256385803222656, 61.538457870483398, 137.894726157188416, 196.842090010643005 ],
					"presentation" : 1,
					"presentation_rect" : [ 413.684178471565247, 84.210519790649414, 134.736831665039062, 190.526301026344299 ],
					"viewvisibility" : 1
				}

			}
, 			{
				"box" : 				{
					"bgmode" : 0,
					"border" : 0,
					"clickthrough" : 0,
					"enablehscroll" : 0,
					"enablevscroll" : 0,
					"id" : "obj-1",
					"lockeddragscroll" : 0,
					"lockedsize" : 0,
					"maxclass" : "bpatcher",
					"name" : "music.maxpat",
					"numinlets" : 0,
					"numoutlets" : 0,
					"offset" : [ 0.0, 0.0 ],
					"patching_rect" : [ 58.230768084526062, 47.43589460849762, 154.736830115318298, 210.526299476623535 ],
					"presentation" : 1,
					"presentation_rect" : [ 170.526302576065063, 74.210520565509796, 154.736830115318298, 210.526299476623535 ],
					"viewvisibility" : 1
				}

			}
 ],
		"lines" : [ 			{
				"patchline" : 				{
					"destination" : [ "obj-14", 0 ],
					"source" : [ "obj-10", 0 ]
				}

			}
, 			{
				"patchline" : 				{
					"destination" : [ "obj-16", 0 ],
					"source" : [ "obj-15", 0 ]
				}

			}
, 			{
				"patchline" : 				{
					"destination" : [ "obj-18", 0 ],
					"source" : [ "obj-16", 0 ]
				}

			}
, 			{
				"patchline" : 				{
					"destination" : [ "obj-32", 0 ],
					"source" : [ "obj-27", 0 ]
				}

			}
, 			{
				"patchline" : 				{
					"destination" : [ "obj-4", 0 ],
					"source" : [ "obj-3", 0 ]
				}

			}
, 			{
				"patchline" : 				{
					"destination" : [ "obj-36", 0 ],
					"source" : [ "obj-35", 0 ]
				}

			}
, 			{
				"patchline" : 				{
					"destination" : [ "obj-37", 1 ],
					"source" : [ "obj-36", 1 ]
				}

			}
, 			{
				"patchline" : 				{
					"destination" : [ "obj-37", 0 ],
					"source" : [ "obj-36", 0 ]
				}

			}
, 			{
				"patchline" : 				{
					"destination" : [ "obj-38", 0 ],
					"source" : [ "obj-37", 0 ]
				}

			}
, 			{
				"patchline" : 				{
					"destination" : [ "obj-39", 0 ],
					"source" : [ "obj-38", 0 ]
				}

			}
, 			{
				"patchline" : 				{
					"destination" : [ "obj-6", 0 ],
					"source" : [ "obj-4", 0 ]
				}

			}
, 			{
				"patchline" : 				{
					"destination" : [ "obj-42", 0 ],
					"source" : [ "obj-40", 0 ]
				}

			}
, 			{
				"patchline" : 				{
					"destination" : [ "obj-38", 2 ],
					"source" : [ "obj-42", 0 ]
				}

			}
, 			{
				"patchline" : 				{
					"destination" : [ "obj-10", 0 ],
					"source" : [ "obj-9", 0 ]
				}

			}
 ],
		"dependency_cache" : [ 			{
				"name" : "beat.maxpat",
				"bootpath" : "~/OneDrive/Documents/Max_enable",
				"patcherrelativepath" : ".",
				"type" : "JSON",
				"implicit" : 1
			}
, 			{
				"name" : "math.maxpat",
				"bootpath" : "~/OneDrive/Documents/Max_enable",
				"patcherrelativepath" : ".",
				"type" : "JSON",
				"implicit" : 1
			}
, 			{
				"name" : "music.maxpat",
				"bootpath" : "~/OneDrive/Documents/Max_enable",
				"patcherrelativepath" : ".",
				"type" : "JSON",
				"implicit" : 1
			}
 ],
		"autosave" : 0
	}

}
